<svg xmlns="http://www.w3.org/2000/svg" width="280.129" height="38.129"><g id="グループ_41" data-name="グループ 41" transform="translate(-659.936 -208.936)"><path id="パス_13" data-name="パス 13" d="M24.2 13.638a4.948 4.948 0 011.836 3.456c0 1.476-1.368 2.61-3.852 2.61-1.764 0-2.664-.81-2.664-2.268 0-.324.036-.774.072-1.3h.72c1.1 0 2.142-.072 3.15-.162l.054-2.124a35.36 35.36 0 01-3.582.216h-.126c.09-.792.2-1.638.306-2.43a31.944 31.944 0 003.474-.162l.072-2.124a26.161 26.161 0 01-3.276.216c.09-.576.144-1.044.2-1.35.072-.468.162-.936.306-1.584l-2.5-.144a11.227 11.227 0 01-.036 1.584c-.036.4-.072.882-.144 1.422a16.523 16.523 0 01-3.654-.666L14.43 10.9a22.281 22.281 0 003.546.63c-.108.81-.2 1.638-.306 2.43a15.174 15.174 0 01-3.51-.7l-.126 2.16a19.989 19.989 0 003.42.594c-.072.738-.126 1.368-.126 1.8 0 2.97 1.98 4.194 4.788 4.194 3.906 0 6.318-1.944 6.318-4.626a6.631 6.631 0 00-1.728-4.282zm11.722-4.914c1.386.36 5.364 1.188 7.164 1.422l.54-2.2A56.433 56.433 0 0136.5 6.564zm.684 1.422l-2.412-.324a64.9 64.9 0 01-.882 7.434l2.07.522a3.863 3.863 0 01.666-1.044 6.249 6.249 0 014.914-2.088c1.566 0 2.664.846 2.664 2 0 2.268-2.826 3.582-8.172 2.826l.684 2.34c7.416.648 9.99-1.854 9.99-5.112 0-2.16-1.818-4.086-4.95-4.086A8.74 8.74 0 0035.94 14.3c.126-1.022.432-3.164.666-4.154zm14.49 3.2l.918 2.34c1.53-.648 5.076-2.124 7.146-2.124a2.3 2.3 0 012.556 2.268c0 2.43-3.024 3.492-7.074 3.6l.936 2.214c5.67-.342 8.5-2.556 8.5-5.778 0-2.7-1.89-4.374-4.7-4.374a25.58 25.58 0 00-6.39 1.386 15.231 15.231 0 01-1.888.472zm15.822-4.7l.216 2.448c2.07-.45 5.832-.846 7.362-1.008a7.125 7.125 0 00-2.628 5.49c0 3.852 3.528 5.868 7.272 6.12l.828-2.466c-3.006-.162-5.76-1.206-5.76-4.14a5.435 5.435 0 013.762-4.98 18.408 18.408 0 013.438-.234l-.018-2.3c-1.242.054-3.2.162-5.04.306-3.258.288-6.21.54-7.686.684-.364.034-1.044.068-1.746.086zm27.5.486H90.84v1.338h9.486V9.138h-3.87v-.756h4.338V7.014h-4.338v-1.26h-2.034v1.26h-4.23v1.368h4.23zm-6.118 2.13a25.178 25.178 0 01-.792 4.716 42.272 42.272 0 00-1.1-.954c.234-1.188.486-2.466.7-3.762zm.794-1.962l-.342.036h-1.3c.2-1.188.378-2.358.54-3.438l-1.944-.144c-.126 1.116-.306 2.34-.486 3.582H84.2v1.926h1.06a106.48 106.48 0 01-1.044 5.418l1.62 1.062.126-.54c.252.252.522.5.792.756a6.407 6.407 0 01-2.61 2.952 8 8 0 011.224 1.674 8.9 8.9 0 002.844-3.1 13.626 13.626 0 011.35 1.764l1.3-1.71a16.2 16.2 0 00-1.764-2.052A29.265 29.265 0 0090.3 9.408zm8.856 10.26v1.08h-4.842v-1.08zm-6.75 3.024h1.908v-.576h4.842v.576h2v-4.356H91.2zm5.958-8.046A15.482 15.482 0 0196.51 16l.324.09h-2.7l.378-.108a6.611 6.611 0 00-.594-1.44zm-3.942-2.2h4.5v.936h-4.5zm5.076 3.744c.234-.4.522-.882.828-1.386l-.7-.162h1.28V11.1h-8.356v3.438h1.332l-.576.144a7.868 7.868 0 01.558 1.4H90.03v1.476h10.962v-1.472zm7.092-9.342a11.192 11.192 0 01.234 2.412c0 1.53-.18 6.21-.18 8.6 0 3.042 1.89 4.32 4.806 4.32a9.277 9.277 0 007.74-4.068l-1.62-2a7.117 7.117 0 01-6.1 3.636 2.146 2.146 0 01-2.448-2.376c0-2.214.126-6.21.216-8.118a18.293 18.293 0 01.234-2.376zm18.882 1.44l-2.736-.036a10.331 10.331 0 01.126 1.8c0 1.1.036 3.168.2 4.806.5 4.788 2.214 6.552 4.158 6.552 1.44 0 2.556-1.1 3.744-4.194l-1.8-2.16c-.342 1.4-1.044 3.492-1.89 3.492-1.116 0-1.656-1.746-1.908-4.32-.108-1.278-.126-2.628-.108-3.78a14.125 14.125 0 01.214-2.156zm8.91.378l-2.268.756c1.944 2.2 2.9 6.39 3.168 9.252l2.358-.9c-.198-2.732-1.566-7.034-3.258-9.104zm12.42 5.346a8.7 8.7 0 012.448-.4 10.189 10.189 0 01-2.25 3.384 20.784 20.784 0 01-.2-2.952zm-3.4 5.076c-.576 0-.828-.306-.828-.864a4.663 4.663 0 012.232-3.276 24.846 24.846 0 00.378 3.564 3.788 3.788 0 01-1.784.58zm6.606-8.352a10.31 10.31 0 01-.162 1.062h-.306a11.987 11.987 0 00-2.664.324c.018-.54.072-1.08.126-1.6a51.793 51.793 0 006.336-.648l-.018-2.052a29.729 29.729 0 01-6.048.756c.054-.342.108-.666.18-.954a6.926 6.926 0 01.252-.954l-2.34-.054a7.12 7.12 0 01-.054 1.062l-.108.954h-.684a29.269 29.269 0 01-3.294-.234l.072 2.07c.828.036 2.214.108 3.15.108h.576c-.072.72-.126 1.476-.18 2.232-2.484 1.17-4.374 3.582-4.374 5.85a2.316 2.316 0 002.412 2.61 6.274 6.274 0 002.754-.72c.072.252.162.5.234.72l2.052-.612a23.267 23.267 0 01-.414-1.332 13.86 13.86 0 003.762-5.4 2.651 2.651 0 011.836 2.5c0 1.746-1.4 3.474-4.842 3.852l1.188 1.872c4.374-.648 5.868-3.114 5.868-5.616a4.6 4.6 0 00-3.438-4.374c.108-.342.234-.72.324-.918zm10.836-4.14c-.018.5-.054 1.224-.144 1.872a43.228 43.228 0 00-.5 5.706 23.056 23.056 0 00.216 2.97l2.214-.144a10.7 10.7 0 01-.09-1.89c.09-2.34 1.926-5.508 4.032-5.508 1.476 0 2.394 1.53 2.394 4.284 0 4.32-2.772 5.616-6.732 6.228l1.35 2.07c4.716-.864 7.812-3.276 7.812-8.316 0-3.924-1.926-6.354-4.41-6.354a5.51 5.51 0 00-4.41 2.88 29.1 29.1 0 01.72-3.69zM191.19 7.86a21.3 21.3 0 00-1.458-2.448l-1.422.594a17.96 17.96 0 011.458 2.484zm-12.1-1.17a19.736 19.736 0 01-.378 3.78c-.9.072-1.746.126-2.3.144a16.551 16.551 0 01-1.89 0l.2 2.412c.558-.09 1.476-.216 1.98-.27.342-.054.9-.126 1.53-.2a26.439 26.439 0 01-3.582 8.334l2.322.936a38.627 38.627 0 003.636-9.522c.5-.036.936-.072 1.224-.072 1.116 0 1.728.2 1.728 1.62a13.609 13.609 0 01-.72 4.878 1.31 1.31 0 01-1.332.774 10.4 10.4 0 01-2.2-.378l.4 2.358a10.092 10.092 0 002.124.252 2.848 2.848 0 002.934-1.638 17.425 17.425 0 001.008-6.5c0-2.556-1.332-3.4-3.222-3.4-.36 0-.9.036-1.494.072.126-.648.27-1.3.378-1.836.09-.45.2-1.008.306-1.476zm9.954 2c-.36-.666-.99-1.8-1.44-2.466l-1.422.594a19.9 19.9 0 011.228 2.122l-1.656.7a20.186 20.186 0 013.006 6.714l2.268-1.062a35.42 35.42 0 00-2.9-6.21zm15.84-.234a12.307 12.307 0 01-1.638 1.08c-.846.468-2.394 1.26-3.852 2.106a41.792 41.792 0 01-2.232-4.932l-2.25.918c.81 1.89 1.674 3.78 2.5 5.31-1.71 1.26-2.952 2.718-2.952 4.7 0 3.06 2.682 4.05 6.228 4.05a34.863 34.863 0 005.724-.432l.036-2.574a29.814 29.814 0 01-5.832.648c-2.466 0-3.708-.684-3.708-1.962 0-1.242.99-2.268 2.484-3.24a54.59 54.59 0 014.968-2.646 26.07 26.07 0 001.764-.954zm16.938 6.624c0 2.79-2.826 4.23-7.254 4.734l1.3 2.232c4.95-.684 8.478-3.06 8.478-6.876 0-2.79-1.98-4.392-4.806-4.392a24.694 24.694 0 00-5.382.81 17.477 17.477 0 01-1.944.306l.666 2.538c.522-.18 1.206-.45 1.728-.612a15.994 15.994 0 014.644-.864c1.674-.02 2.574.952 2.574 2.122zm-6.98-8.57l-.36 2.16c2.052.36 5.922.7 8.01.846l.36-2.2a50.35 50.35 0 01-8.01-.806z" transform="translate(680 211)" fill="#4c4033"/><g id="グループ_38" data-name="グループ 38" transform="translate(-5552.5 547.5)" fill="none" stroke="#4c4033" stroke-linecap="round" stroke-width="3"><path id="パス_11" data-name="パス 11" d="M21 34L0 0" transform="translate(6214.5 -336.5)"/><path id="パス_10" data-name="パス 10" d="M0 34L21 0" transform="translate(6469.5 -336.5)"/></g></g></svg>