<svg xmlns="http://www.w3.org/2000/svg" width="195.357" height="27.289"><g id="グループ_40" data-name="グループ 40" transform="translate(-86.035 -198.485)"><path id="パス_12" data-name="パス 12" d="M21.09 11.119a3.433 3.433 0 011.274 2.4c0 1.024-.949 1.811-2.673 1.811-1.224 0-1.848-.562-1.848-1.574 0-.225.025-.537.05-.9h.5c.762 0 1.486-.05 2.186-.112l.037-1.474a24.534 24.534 0 01-2.485.15h-.087c.062-.55.137-1.136.212-1.686a22.164 22.164 0 002.41-.112l.05-1.474a18.151 18.151 0 01-2.273.15c.062-.4.1-.724.137-.937.05-.325.112-.649.212-1.1l-1.736-.1a7.79 7.79 0 01-.025 1.1c-.025.275-.05.612-.1.987a11.464 11.464 0 01-2.531-.463l-.087 1.436a15.459 15.459 0 002.46.437c-.075.562-.137 1.136-.212 1.686a10.528 10.528 0 01-2.435-.487l-.087 1.5a13.868 13.868 0 002.373.412c-.05.512-.087.949-.087 1.249 0 2.061 1.374 2.91 3.322 2.91 2.71 0 4.384-1.349 4.384-3.21a4.6 4.6 0 00-1.2-2.972zm8.13-3.409c.962.25 3.722.824 4.971.987l.375-1.524a39.154 39.154 0 01-4.946-.962zm.48.99l-1.674-.225a45.032 45.032 0 01-.612 5.158l1.436.362a2.68 2.68 0 01.462-.724 4.336 4.336 0 013.409-1.449c1.087 0 1.848.587 1.848 1.386 0 1.574-1.961 2.485-5.67 1.961l.475 1.624c5.145.45 6.931-1.286 6.931-3.547 0-1.5-1.261-2.835-3.434-2.835a6.064 6.064 0 00-3.634 1.174c.083-.715.296-2.202.463-2.885zm10.049 2.22l.637 1.624a16.668 16.668 0 014.958-1.474 1.6 1.6 0 011.773 1.574c0 1.686-2.1 2.423-4.908 2.5l.649 1.536c3.934-.237 5.895-1.773 5.895-4.009a2.955 2.955 0 00-3.26-3.035 17.748 17.748 0 00-4.434.962 10.568 10.568 0 01-1.31.322zm10.977-3.26l.15 1.7c1.436-.312 4.046-.587 5.108-.7a4.943 4.943 0 00-1.823 3.809c0 2.673 2.448 4.071 5.046 4.246L59.781 15c-2.086-.112-4-.837-4-2.872a3.771 3.771 0 012.61-3.459 12.772 12.772 0 012.385-.162l-.012-1.6c-.862.037-2.223.112-3.5.212-2.26.2-4.309.375-5.333.475-.243.029-.718.054-1.205.066zM69.809 8h-2.485v.924h6.582V8h-2.685v-.527h3.01v-.949h-3.01v-.875h-1.412v.874h-2.934v.949h2.935zm-4.246 1.471a17.47 17.47 0 01-.55 3.272 30.86 30.86 0 00-.762-.662c.162-.824.337-1.711.487-2.61zm.55-1.361l-.237.025h-.9c.137-.824.262-1.636.375-2.385L64 5.649c-.087.774-.212 1.624-.337 2.485h-.949v1.337h.737c-.237 1.411-.5 2.76-.724 3.759l1.124.737.087-.375c.175.175.362.35.55.525a4.445 4.445 0 01-1.811 2.048 5.549 5.549 0 01.849 1.161 6.175 6.175 0 001.974-2.148 9.454 9.454 0 01.937 1.224l.9-1.186a11.241 11.241 0 00-1.224-1.424 20.305 20.305 0 00.837-5.608zm6.145 7.119v.749H68.9v-.749zm-4.683 2.1H68.9v-.4h3.36v.4h1.386V14.3h-6.07zm4.134-5.583a10.742 10.742 0 01-.45 1.012l.225.062H69.61l.262-.075a4.587 4.587 0 00-.412-1zm-2.736-1.526h3.122v.649h-3.122zm3.522 2.6c.162-.275.362-.612.574-.962l-.487-.112h.887V9.358h-5.795v2.385h.926l-.4.1a5.459 5.459 0 01.387.974h-1.825v1.024h7.606v-1.023zm4.921-6.482a7.765 7.765 0 01.162 1.674c0 1.062-.125 4.309-.125 5.97 0 2.111 1.311 3 3.335 3a6.436 6.436 0 005.37-2.822l-1.124-1.386a4.938 4.938 0 01-4.234 2.517 1.489 1.489 0 01-1.7-1.649c0-1.536.087-4.309.15-5.632a12.692 12.692 0 01.162-1.649zm13.1 1l-1.9-.025a7.168 7.168 0 01.087 1.249c0 .762.025 2.2.137 3.335.35 3.322 1.536 4.546 2.885 4.546 1 0 1.773-.762 2.6-2.91l-1.249-1.5c-.237.974-.724 2.423-1.311 2.423-.774 0-1.149-1.211-1.324-3a27.168 27.168 0 01-.075-2.623 9.8 9.8 0 01.15-1.498zM96.7 7.6l-1.574.525c1.349 1.524 2.011 4.434 2.2 6.419l1.636-.624A13.479 13.479 0 0096.7 7.6zm8.617 3.709a6.039 6.039 0 011.7-.275 7.069 7.069 0 01-1.561 2.348 14.421 14.421 0 01-.137-2.048zm-2.36 3.522c-.4 0-.574-.212-.574-.6a3.235 3.235 0 011.549-2.273 17.24 17.24 0 00.262 2.473 2.628 2.628 0 01-1.239.398zm4.583-5.795a7.156 7.156 0 01-.112.737h-.212a8.317 8.317 0 00-1.848.225c.012-.375.05-.749.087-1.112a35.935 35.935 0 004.4-.45l-.012-1.424a20.627 20.627 0 01-4.2.525c.037-.237.075-.462.125-.662a4.805 4.805 0 01.175-.662l-1.624-.037a4.939 4.939 0 01-.037.737l-.075.662h-.475a20.308 20.308 0 01-2.285-.162l.05 1.436c.574.025 1.536.075 2.186.075h.4c-.05.5-.087 1.024-.125 1.549a4.991 4.991 0 00-3.035 4.059 1.607 1.607 0 001.674 1.811 4.353 4.353 0 001.911-.5c.05.175.112.35.162.5l1.424-.425c-.1-.3-.2-.6-.287-.924a9.616 9.616 0 002.61-3.747 1.839 1.839 0 011.274 1.736c0 1.211-.974 2.41-3.36 2.673l.824 1.3c3.035-.45 4.071-2.161 4.071-3.9a3.192 3.192 0 00-2.385-3.035c.075-.237.162-.5.225-.637zm7.518-2.872c-.012.35-.037.849-.1 1.3a29.992 29.992 0 00-.35 3.959 16 16 0 00.15 2.061l1.536-.1a7.426 7.426 0 01-.062-1.311c.062-1.624 1.336-3.822 2.8-3.822 1.024 0 1.661 1.062 1.661 2.972 0 3-1.923 3.9-4.671 4.321l.937 1.436c3.272-.6 5.42-2.273 5.42-5.77 0-2.723-1.336-4.409-3.06-4.409a3.823 3.823 0 00-3.06 2 20.194 20.194 0 01.5-2.56zm21.893.949a14.781 14.781 0 00-1.012-1.7l-.987.412a12.461 12.461 0 011.012 1.723zm-8.394-.813a13.694 13.694 0 01-.262 2.623 38 38 0 01-1.6.1 11.484 11.484 0 01-1.311 0l.137 1.674a32.39 32.39 0 011.374-.187c.237-.037.624-.087 1.062-.137a18.344 18.344 0 01-2.485 5.782l1.611.649a26.8 26.8 0 002.523-6.607c.35-.025.649-.05.849-.05.774 0 1.2.137 1.2 1.124a9.442 9.442 0 01-.5 3.384.909.909 0 01-.924.537 7.217 7.217 0 01-1.524-.262l.275 1.636a7 7 0 001.474.175 1.976 1.976 0 002.036-1.136 12.09 12.09 0 00.7-4.508c0-1.773-.924-2.36-2.236-2.36-.25 0-.624.025-1.037.05.087-.45.187-.9.262-1.274.062-.312.137-.7.212-1.024zm6.906 1.386c-.25-.462-.687-1.249-1-1.711l-.987.412a13.806 13.806 0 01.849 1.474l-1.149.487a14.006 14.006 0 012.086 4.658l1.574-.737a24.575 24.575 0 00-2.011-4.309zm10.99-.162a8.538 8.538 0 01-1.136.749c-.587.325-1.661.874-2.673 1.461a29 29 0 01-1.544-3.423l-1.561.637c.562 1.311 1.161 2.623 1.736 3.684a4.121 4.121 0 00-2.048 3.26c0 2.123 1.861 2.81 4.321 2.81a24.189 24.189 0 003.971-.3l.025-1.786a20.686 20.686 0 01-4.046.45c-1.711 0-2.573-.475-2.573-1.361 0-.862.687-1.574 1.723-2.248a37.877 37.877 0 013.447-1.836c.45-.225.849-.437 1.224-.662zm11.752 4.6c0 1.936-1.961 2.935-5.033 3.285l.9 1.549c3.434-.475 5.882-2.123 5.882-4.771 0-1.936-1.374-3.047-3.335-3.047a17.133 17.133 0 00-3.734.562 12.125 12.125 0 01-1.349.212l.464 1.755c.362-.125.837-.312 1.2-.425a11.1 11.1 0 013.222-.6c1.159-.012 1.784.663 1.784 1.475zm-4.845-5.95l-.25 1.5c1.424.25 4.109.487 5.558.587l.25-1.524a34.934 34.934 0 01-5.558-.563z" transform="translate(96.364 199.106)" fill="#4c4033"/><g id="グループ_39" data-name="グループ 39" transform="translate(88.104 200.553)" fill="none" stroke="#4c4033" stroke-linecap="round" stroke-width="3"><path id="パス_11" data-name="パス 11" d="M14.57 23.152L0 0"/><path id="パス_10" data-name="パス 10" d="M0 23.152L14.57 0" transform="translate(176.649)"/></g></g></svg>